<svg xmlns="http://www.w3.org/2000/svg" width="77.035" height="30.363" viewBox="0 0 77.035 30.363">
    <defs>
        <style>
            .cls-1{fill:#6442fb}.cls-2{fill:#36393d}.cls-3{fill:#747c8f}
        </style>
    </defs>
    <g id="powered" transform="translate(-80 -835.496)">
        <g id="Group_2" data-name="Group 2" transform="translate(80 839.614)">
            <path id="Path_6" d="M141.325 6.9a2.325 2.325 0 1 0 2.325 2.325 2.336 2.336 0 0 0-2.325-2.325z" class="cls-1" data-name="Path 6" transform="translate(-139 -6.9)"/>
            <path id="Path_7" d="M153.923 16.3h-12.148a.672.672 0 0 0-.675.675v17.772a.788.788 0 0 0 .375.675.451.451 0 0 0 .3.075 1.066 1.066 0 0 0 .45-.15l4.8-3.974h6.9a6.209 6.209 0 0 0 5.924-6.449v-2.1a6.136 6.136 0 0 0-5.926-6.524zm-3.449 11.848a4.512 4.512 0 0 1-4.5-4.5h1.426a3.088 3.088 0 0 0 3.074 3.074 3.041 3.041 0 0 0 3.074-3.074h1.425a4.512 4.512 0 0 1-4.5 4.5z" class="cls-1" data-name="Path 7" transform="translate(-139.525 -9.251)"/>
        </g>
        <g id="Group_4" data-name="Group 4" transform="translate(107.37 845.613)">
            <g id="Group_3" data-name="Group 3">
                <path id="Path_8" d="M187.273 26.9c0 3.3-2.025 5.549-5.1 5.549a4.077 4.077 0 0 1-3.524-1.725v5.549H175.5v-15h3.149v1.65A3.944 3.944 0 0 1 182.1 21.2c3.073 0 5.173 2.325 5.173 5.7zm-3.224-.075a2.768 2.768 0 0 0-2.7-3 2.825 2.825 0 0 0-2.775 3 2.805 2.805 0 0 0 2.775 3.074c1.651.001 2.7-1.275 2.7-3.075z" class="cls-2" data-name="Path 8" transform="translate(-175.5 -16.476)"/>
                <path id="Path_9" d="M197.949 16.625a1.614 1.614 0 0 1-1.725 1.725 1.7 1.7 0 0 1-1.725-1.725 1.725 1.725 0 0 1 3.449 0zM194.725 30.8V19.774h3.149V30.8z" class="cls-2" data-name="Path 9" transform="translate(-180.252 -14.9)"/>
                <path id="Path_10" d="M215.773 26.9c0 3.3-2.025 5.549-5.1 5.549a4.077 4.077 0 0 1-3.524-1.725v5.549H204v-15h3.149v1.65A3.944 3.944 0 0 1 210.6 21.2c3.073 0 5.173 2.325 5.173 5.7zm-3.149-.075a2.749 2.749 0 1 0-5.474 0 2.805 2.805 0 0 0 2.775 3.074 2.835 2.835 0 0 0 2.699-3.075z" class="cls-2" data-name="Path 10" transform="translate(-182.629 -16.476)"/>
                <path id="Path_11" d="M233.848 26.824c0 3.374-2.4 5.624-5.924 5.624S222 30.2 222 26.824s2.4-5.624 5.924-5.624c3.599 0 5.924 2.25 5.924 5.624zm-8.624.075a2.783 2.783 0 1 0 5.549 0 2.741 2.741 0 0 0-2.775-3 2.7 2.7 0 0 0-2.774 3.001z" class="cls-2" data-name="Path 11" transform="translate(-187.131 -16.476)"/>
            </g>
        </g>
        <path id="Path_2923" d="M3.269-4.191a1.76 1.76 0 0 0-1.575.813v-.779H.72v6.148h.974V-.431a1.77 1.77 0 0 0 1.592.813 2.087 2.087 0 0 0 2.134-2.27 2.119 2.119 0 0 0-2.151-2.303zm-.2 3.743a1.363 1.363 0 0 1-1.375-1.474 1.363 1.363 0 0 1 1.372-1.457 1.367 1.367 0 0 1 1.372 1.457A1.368 1.368 0 0 1 3.066-.448zm5.3-3.743A2.205 2.205 0 0 0 6.013-1.9 2.21 2.21 0 0 0 8.367.382 2.208 2.208 0 0 0 10.713-1.9a2.2 2.2 0 0 0-2.346-2.291zm0 .838A1.353 1.353 0 0 1 9.739-1.9 1.356 1.356 0 0 1 8.367-.431 1.358 1.358 0 0 1 6.987-1.9a1.355 1.355 0 0 1 1.38-1.453zM16.8.348l1.643-4.505h-.991L16.3-.618l-1.143-3.54h-1.006l-1.135 3.54-1.169-3.54h-1L12.508.348h1l1.143-3.337L15.794.348zm4.006-4.539A2.187 2.187 0 0 0 18.529-1.9a2.167 2.167 0 0 0 2.3 2.278A2.452 2.452 0 0 0 22.7-.381l-.517-.55a1.752 1.752 0 0 1-1.27.525 1.372 1.372 0 0 1-1.4-1.126h3.4c.122-1.626-.522-2.659-2.105-2.659zm-1.311 1.947a1.282 1.282 0 0 1 1.321-1.169 1.157 1.157 0 0 1 1.253 1.169zm5.411-1.914h-.974V.348h.974v-2.355a1.365 1.365 0 0 1 1.559-1.253v-.932a1.638 1.638 0 0 0-1.558.932zm4.217-.034A2.187 2.187 0 0 0 26.846-1.9a2.167 2.167 0 0 0 2.3 2.278 2.452 2.452 0 0 0 1.863-.762L30.5-.931a1.752 1.752 0 0 1-1.27.525 1.372 1.372 0 0 1-1.4-1.126h3.4c.121-1.626-.523-2.659-2.106-2.659zm-1.312 1.948a1.282 1.282 0 0 1 1.321-1.169 1.157 1.157 0 0 1 1.253 1.169zm8.731-3.692h-.974v2.557a1.781 1.781 0 0 0-1.6-.821 2.105 2.105 0 0 0-2.143 2.278A2.124 2.124 0 0 0 33.985.39a1.746 1.746 0 0 0 1.584-.813v.771h.974zM34.188-.423A1.373 1.373 0 0 1 32.8-1.888a1.388 1.388 0 0 1 1.388-1.482 1.372 1.372 0 0 1 1.38 1.482 1.367 1.367 0 0 1-1.38 1.465zM42.8-4.191a1.76 1.76 0 0 0-1.575.813v-2.558h-.974V.348h.974v-.779a1.77 1.77 0 0 0 1.592.813 2.087 2.087 0 0 0 2.134-2.27A2.119 2.119 0 0 0 42.8-4.191zm-.2 3.743a1.363 1.363 0 0 1-1.372-1.474A1.363 1.363 0 0 1 42.6-3.379a1.367 1.367 0 0 1 1.372 1.457A1.368 1.368 0 0 1 42.6-.448zm7.02-3.709h-.974L47.391-.745l-1.347-3.413h-1.008L46.9.28l-.152.339a.734.734 0 0 1-.686.5.952.952 0 0 1-.585-.219l-.415.754a1.524 1.524 0 0 0 1.042.381A1.5 1.5 0 0 0 47.568.966z" class="cls-3" data-name="Path 2923" transform="translate(107.417 841.432)"/>
    </g>
</svg>
